<svg width="36" height="36" viewBox="0 0 36 36" fill="none" xmlns="http://www.w3.org/2000/svg">
<path fill-rule="evenodd" clip-rule="evenodd" d="M15.2085 3.62039C15.8102 2.79763 16.7446 2.25 18.0695 2.25C19.3272 2.25 20.2197 2.78561 20.7952 3.58587C21.1239 4.04287 21.3394 4.57158 21.4797 5.10702C21.5503 5.3767 21.7647 5.58494 22.0363 5.64772C26.5834 6.69854 29.1363 9.73867 30.5317 13.4797C32.0017 17.4206 32.2081 22.173 32.2391 26.2457C32.2518 27.9098 30.8985 29.25 29.2445 29.25H22.3563C21.9955 29.25 21.6859 29.5068 21.6192 29.8614C21.46 30.708 21.1551 31.4744 20.7368 32.1004C20.1022 33.0502 19.1459 33.75 17.9945 33.75C16.843 33.75 15.8868 33.0502 15.2521 32.1004C14.8338 31.4744 14.5289 30.708 14.3697 29.8614C14.303 29.5068 13.9934 29.25 13.6326 29.25H6.74446C5.09046 29.25 3.73676 27.9095 3.7501 26.2452C3.78216 22.2437 3.99219 17.585 5.46238 13.6837C6.85977 9.97553 9.40952 6.93053 13.9468 5.76274C14.2118 5.69454 14.4187 5.48741 14.4865 5.22231C14.6298 4.66216 14.8554 4.10315 15.2085 3.62039ZM18.0695 3.75C17.6781 3.75 17.3377 3.81709 17.0443 3.96546C16.7447 4.11691 16.5524 4.32379 16.4192 4.50586C16.0711 4.98181 15.8832 5.65296 15.7994 6.37179C15.7614 6.69803 15.5156 6.96159 15.1927 7.02214C12.9522 7.44245 11.1979 8.33488 9.83239 9.59654C8.47209 10.8534 7.53249 12.4441 6.86602 14.2126C5.49971 17.8383 5.28213 22.2534 5.25005 26.2572C5.24351 27.0737 5.90875 27.75 6.74446 27.75H29.2445C30.08 27.75 30.7454 27.074 30.7392 26.2571C30.7081 22.179 30.4938 17.67 29.1263 14.004C28.4598 12.217 27.5211 10.6224 26.1603 9.38353C24.7932 8.13887 23.0387 7.28858 20.8026 6.93584C20.4705 6.88346 20.2139 6.61651 20.1746 6.28263C20.0908 5.57071 19.9064 4.91901 19.5774 4.46163C19.4556 4.29217 19.2781 4.09428 18.9989 3.95007C18.7251 3.80865 18.4143 3.75 18.0695 3.75ZM16.7215 29.25C16.4815 29.25 16.256 29.3649 16.1148 29.559C15.9737 29.7532 15.934 30.0031 16.0081 30.2314C16.1343 30.6204 16.3015 30.9711 16.4993 31.2671C16.96 31.9565 17.5067 32.25 17.9945 32.25C18.4823 32.25 19.0289 31.9565 19.4896 31.2671C19.6874 30.9711 19.8547 30.6204 19.9808 30.2314C20.0549 30.0031 20.0152 29.7532 19.8741 29.559C19.733 29.3649 19.5075 29.25 19.2674 29.25H16.7215Z" fill="black"/>
<path d="M15.2085 3.62039L15.612 3.91555L15.612 3.91555L15.2085 3.62039ZM20.7952 3.58587L20.3893 3.87779L20.3893 3.87779L20.7952 3.58587ZM21.4797 5.10702L21.9634 4.98032L21.9634 4.98032L21.4797 5.10702ZM22.0363 5.64772L21.9238 6.13488L21.9238 6.13488L22.0363 5.64772ZM30.5317 13.4797L31.0002 13.305L31.0002 13.305L30.5317 13.4797ZM32.2391 26.2457L32.7391 26.2419L32.7391 26.2419L32.2391 26.2457ZM21.6192 29.8614L22.1106 29.9538L22.1106 29.9538L21.6192 29.8614ZM20.7368 32.1004L21.1525 32.3782L21.1525 32.3782L20.7368 32.1004ZM15.2521 32.1004L14.8364 32.3782L14.8364 32.3782L15.2521 32.1004ZM14.3697 29.8614L13.8783 29.9538L13.8783 29.9538L14.3697 29.8614ZM3.7501 26.2452L3.25011 26.2412L3.25011 26.2412L3.7501 26.2452ZM5.46238 13.6837L5.93026 13.86L5.93026 13.86L5.46238 13.6837ZM13.9468 5.76274L14.0715 6.24696L14.0715 6.24696L13.9468 5.76274ZM14.4865 5.22231L14.0021 5.09838L14.0021 5.09838L14.4865 5.22231ZM17.0443 3.96546L17.2699 4.41166L17.2699 4.41166L17.0443 3.96546ZM16.4192 4.50586L16.8228 4.80102L16.8228 4.80102L16.4192 4.50586ZM15.7994 6.37179L15.3028 6.31393L15.3028 6.31393L15.7994 6.37179ZM15.1927 7.02214L15.2849 7.51357L15.2849 7.51357L15.1927 7.02214ZM9.83239 9.59654L10.1717 9.96379L10.1717 9.96379L9.83239 9.59654ZM6.86602 14.2126L6.39814 14.0363L6.39814 14.0363L6.86602 14.2126ZM5.25005 26.2572L4.75007 26.2532L4.75007 26.2532L5.25005 26.2572ZM30.7392 26.2571L30.2392 26.261L30.2392 26.261L30.7392 26.2571ZM29.1263 14.004L29.5948 13.8292L29.5948 13.8292L29.1263 14.004ZM26.1603 9.38353L25.8237 9.75325L25.8237 9.75325L26.1603 9.38353ZM20.8026 6.93584L20.7247 7.42973L20.7247 7.42973L20.8026 6.93584ZM20.1746 6.28263L20.6712 6.22421L20.6712 6.22421L20.1746 6.28263ZM19.5774 4.46163L19.1715 4.75355L19.1715 4.75355L19.5774 4.46163ZM18.9989 3.95007L19.2284 3.50584L19.2284 3.50584L18.9989 3.95007ZM16.1148 29.559L15.7104 29.265L15.7104 29.265L16.1148 29.559ZM16.0081 30.2314L15.5325 30.3857L15.5325 30.3857L16.0081 30.2314ZM16.4993 31.2671L16.915 30.9893L16.915 30.9893L16.4993 31.2671ZM19.4896 31.2671L19.0739 30.9893L19.0739 30.9893L19.4896 31.2671ZM19.9808 30.2314L20.4564 30.3857L20.4564 30.3857L19.9808 30.2314ZM19.8741 29.559L20.2785 29.265L20.2785 29.265L19.8741 29.559ZM18.0695 1.75C16.5864 1.75 15.5015 2.37267 14.8049 3.32523L15.612 3.91555C16.1188 3.22259 16.9028 2.75 18.0695 2.75V1.75ZM21.2012 3.29395C20.5333 2.36529 19.4909 1.75 18.0695 1.75V2.75C19.1636 2.75 19.9061 3.20593 20.3893 3.87779L21.2012 3.29395ZM21.9634 4.98032C21.8124 4.40383 21.5753 3.81415 21.2012 3.29395L20.3893 3.87779C20.6725 4.2716 20.8665 4.73932 20.996 5.23372L21.9634 4.98032ZM22.1489 5.16055C22.0584 5.13963 21.9869 5.07022 21.9634 4.98032L20.996 5.23372C21.1137 5.68318 21.4711 6.03026 21.9238 6.13488L22.1489 5.16055ZM31.0002 13.305C29.562 9.44913 26.8993 6.25835 22.1489 5.16055L21.9238 6.13488C26.2675 7.13872 28.7106 10.0282 30.0633 13.6545L31.0002 13.305ZM32.7391 26.2419C32.7081 22.1708 32.5043 17.3375 31.0002 13.305L30.0633 13.6545C31.4991 17.5038 31.7081 22.1751 31.7391 26.2495L32.7391 26.2419ZM29.2445 29.75C31.1721 29.75 32.7539 28.1876 32.7391 26.2419L31.7391 26.2495C31.7497 27.632 30.6248 28.75 29.2445 28.75V29.75ZM22.3563 29.75H29.2445V28.75H22.3563V29.75ZM22.1106 29.9538C22.1328 29.8356 22.236 29.75 22.3563 29.75V28.75C21.755 28.75 21.239 29.1781 21.1278 29.769L22.1106 29.9538ZM21.1525 32.3782C21.6124 31.69 21.9404 30.859 22.1106 29.9538L21.1278 29.769C20.9796 30.5571 20.6978 31.2589 20.3211 31.8226L21.1525 32.3782ZM17.9945 34.25C19.3656 34.25 20.4588 33.4164 21.1525 32.3782L20.3211 31.8226C19.7455 32.684 18.9262 33.25 17.9945 33.25V34.25ZM14.8364 32.3782C15.5301 33.4164 16.6234 34.25 17.9945 34.25V33.25C17.0627 33.25 16.2434 32.684 15.6678 31.8226L14.8364 32.3782ZM13.8783 29.9538C14.0486 30.859 14.3765 31.69 14.8364 32.3782L15.6678 31.8226C15.2911 31.2589 15.0093 30.5571 14.8611 29.769L13.8783 29.9538ZM13.6326 29.75C13.7529 29.75 13.8561 29.8356 13.8783 29.9538L14.8611 29.769C14.75 29.1781 14.2339 28.75 13.6326 28.75V29.75ZM6.74446 29.75H13.6326V28.75H6.74446V29.75ZM3.25011 26.2412C3.23452 28.1873 4.81685 29.75 6.74446 29.75V28.75C5.36407 28.75 4.239 27.6317 4.25008 26.2492L3.25011 26.2412ZM4.9945 13.5073C3.4897 17.5005 3.28217 22.2403 3.25011 26.2412L4.25008 26.2492C4.28215 22.247 4.49468 17.6695 5.93026 13.86L4.9945 13.5073ZM13.8222 5.27852C9.0918 6.49601 6.43512 9.6845 4.9945 13.5073L5.93026 13.86C7.28442 10.2666 9.72724 7.36505 14.0715 6.24696L13.8222 5.27852ZM14.0021 5.09838C13.9795 5.18674 13.9105 5.25579 13.8222 5.27852L14.0715 6.24696C14.5131 6.13328 14.8578 5.78808 14.9709 5.34624L14.0021 5.09838ZM14.8049 3.32523C14.4039 3.8735 14.1562 4.49607 14.0021 5.09838L14.9709 5.34624C15.1034 4.82826 15.3069 4.33281 15.612 3.91555L14.8049 3.32523ZM17.2699 4.41166C17.4761 4.30737 17.7346 4.25 18.0695 4.25V3.25C17.6216 3.25 17.1992 3.32681 16.8186 3.51925L17.2699 4.41166ZM16.8228 4.80102C16.9255 4.66066 17.0616 4.51698 17.2699 4.41166L16.8186 3.51925C16.4279 3.71684 16.1793 3.98692 16.0156 4.21071L16.8228 4.80102ZM16.2961 6.42965C16.3757 5.74625 16.549 5.17535 16.8228 4.80102L16.0156 4.2107C15.5932 4.78827 15.3907 5.55967 15.3028 6.31393L16.2961 6.42965ZM15.2849 7.51357C15.823 7.41264 16.2327 6.97339 16.2961 6.42965L15.3028 6.31393C15.2901 6.42268 15.2082 6.51053 15.1006 6.53071L15.2849 7.51357ZM10.1717 9.96379C11.4621 8.77157 13.1283 7.91814 15.2849 7.51357L15.1006 6.53071C12.7761 6.96675 10.9338 7.89819 9.49308 9.2293L10.1717 9.96379ZM7.3339 14.3889C7.98091 12.672 8.88308 11.1544 10.1717 9.96379L9.49308 9.2293C8.0611 10.5524 7.08406 12.2161 6.39814 14.0363L7.3339 14.3889ZM5.75003 26.2612C5.78212 22.2565 6.00223 17.9227 7.3339 14.3889L6.39814 14.0363C4.99718 17.7539 4.78214 22.2503 4.75007 26.2532L5.75003 26.2612ZM6.74446 27.25C6.18474 27.25 5.74573 26.7982 5.75003 26.2612L4.75007 26.2532C4.74129 27.3491 5.63276 28.25 6.74446 28.25V27.25ZM29.2445 27.25H6.74446V28.25H29.2445V27.25ZM30.2392 26.261C30.2433 26.7985 29.8041 27.25 29.2445 27.25V28.25C30.356 28.25 31.2475 27.3495 31.2391 26.2533L30.2392 26.261ZM28.6578 14.1787C29.9911 17.7531 30.2081 22.1809 30.2392 26.261L31.2391 26.2533C31.2081 22.1771 30.9964 17.5869 29.5948 13.8292L28.6578 14.1787ZM25.8237 9.75325C27.1097 10.9241 28.0105 12.4432 28.6578 14.1787L29.5948 13.8292C28.9091 11.9909 27.9324 10.3208 26.4969 9.01381L25.8237 9.75325ZM20.7247 7.42973C22.8737 7.76873 24.5355 8.58047 25.8237 9.75325L26.4969 9.01381C25.0509 7.69727 23.2038 6.80844 20.8805 6.44195L20.7247 7.42973ZM19.678 6.34105C19.7435 6.89751 20.1712 7.34243 20.7247 7.42973L20.8805 6.44195C20.7698 6.42449 20.6843 6.3355 20.6712 6.22421L19.678 6.34105ZM19.1715 4.75355C19.4283 5.11068 19.5984 5.66415 19.678 6.34105L20.6712 6.22421C20.5833 5.47727 20.3844 4.72735 19.9834 4.16971L19.1715 4.75355ZM18.7694 4.39431C18.9555 4.49042 19.0776 4.62293 19.1715 4.75355L19.9834 4.16971C19.8336 3.96141 19.6007 3.69814 19.2284 3.50584L18.7694 4.39431ZM18.0695 4.25C18.3584 4.25 18.5852 4.29914 18.7694 4.39431L19.2284 3.50584C18.865 3.31815 18.4701 3.25 18.0695 3.25V4.25ZM16.5193 29.853C16.5663 29.7883 16.6415 29.75 16.7215 29.75V28.75C16.3215 28.75 15.9456 28.9415 15.7104 29.265L16.5193 29.853ZM16.4837 30.0771C16.459 30.001 16.4722 29.9177 16.5193 29.853L15.7104 29.265C15.4752 29.5886 15.4091 30.0052 15.5325 30.3857L16.4837 30.0771ZM16.915 30.9893C16.7457 30.7358 16.5974 30.4276 16.4837 30.0771L15.5325 30.3857C15.6712 30.8132 15.8574 31.2063 16.0836 31.5449L16.915 30.9893ZM17.9945 31.75C17.7216 31.75 17.3132 31.5852 16.915 30.9893L16.0836 31.5449C16.6068 32.3278 17.2917 32.75 17.9945 32.75V31.75ZM19.0739 30.9893C18.6757 31.5852 18.2673 31.75 17.9945 31.75V32.75C18.6972 32.75 19.3822 32.3278 19.9053 31.5449L19.0739 30.9893ZM19.5052 30.0771C19.3915 30.4276 19.2433 30.7358 19.0739 30.9893L19.9053 31.5449C20.1316 31.2063 20.3178 30.8132 20.4564 30.3857L19.5052 30.0771ZM19.4697 29.853C19.5167 29.9177 19.5299 30.001 19.5052 30.0771L20.4564 30.3857C20.5799 30.0052 20.5137 29.5886 20.2785 29.265L19.4697 29.853ZM19.2674 29.75C19.3474 29.75 19.4226 29.7883 19.4697 29.853L20.2785 29.265C20.0433 28.9415 19.6675 28.75 19.2674 28.75V29.75ZM16.7215 29.75H19.2674V28.75H16.7215V29.75Z" fill="black"/>
</svg>
