<svg width="24" height="24" viewBox="0 0 24 24" fill="none" xmlns="http://www.w3.org/2000/svg">
<circle cx="12" cy="12" r="12" fill="black"/>
<path d="M4.90907 2.5321C4.82179 2.5321 3.92725 3.19265 3.59998 3.63302C9.16361 16.844 20.6182 3.96332 20.4001 3.63305C20.2255 3.36883 19.5273 2.78901 19.2001 2.53213C7.9637 14.9725 5.01816 2.5321 4.90907 2.5321Z" fill="white"/>
<path d="M5.89088 22.2385L4.36361 21.1376C10.9963 15.7651 17.3091 18.8991 19.6363 21.1376C19.2 21.666 18.2182 22.2385 17.7818 22.4587C13.5927 17.967 8.10907 20.4404 5.89088 22.2385Z" fill="white"/>
<path d="M4.90907 2.5321C4.82179 2.5321 3.92725 3.19265 3.59998 3.63302C9.16361 16.844 20.6182 3.96332 20.4001 3.63305C20.2255 3.36883 19.5273 2.78901 19.2001 2.53213C7.9637 14.9725 5.01816 2.5321 4.90907 2.5321Z" stroke="white"/>
<path d="M5.89088 22.2385L4.36361 21.1376C10.9963 15.7651 17.3091 18.8991 19.6363 21.1376C19.2 21.666 18.2182 22.2385 17.7818 22.4587C13.5927 17.967 8.10907 20.4404 5.89088 22.2385Z" stroke="white"/>
</svg>
