<svg width="24" height="24" viewBox="0 0 24 24" fill="none" xmlns="http://www.w3.org/2000/svg">
<path fill-rule="evenodd" clip-rule="evenodd" d="M21.6464 22.3535L21.2929 22L16.6548 17.3619L16.3053 17.6415C14.8511 18.8047 13.0074 19.5 11 19.5C6.30558 19.5 2.5 15.6944 2.5 11C2.5 6.30558 6.30558 2.5 11 2.5C15.6944 2.5 19.5 6.30558 19.5 11C19.5 13.0075 18.8047 14.8512 17.6414 16.3054L17.3619 16.6548L22.3478 21.6408L22.3507 21.6436C22.4434 21.7349 22.5 21.8604 22.5 22C22.5 22.2761 22.2761 22.5 22 22.5C21.8618 22.5 21.7375 22.4446 21.6464 22.3535ZM11 3.5C6.85786 3.5 3.5 6.85786 3.5 11C3.5 15.1421 6.85786 18.5 11 18.5C15.1421 18.5 18.5 15.1421 18.5 11C18.5 6.85786 15.1421 3.5 11 3.5Z" fill="black"/>
</svg>
