<svg width="24" height="24" viewBox="0 0 24 24" fill="none" xmlns="http://www.w3.org/2000/svg">
<path fill-rule="evenodd" clip-rule="evenodd" d="M10.139 2.41359C10.5401 1.86509 11.1631 1.5 12.0463 1.5C12.8848 1.5 13.4798 1.85707 13.8635 2.39058C14.0826 2.69525 14.2263 3.04772 14.3198 3.40468C14.3669 3.58447 14.5098 3.7233 14.6909 3.76514C17.7223 4.46569 19.4242 6.49244 20.3545 8.98648C21.3345 11.6137 21.4721 14.782 21.4927 17.4971C21.5012 18.6065 20.599 19.5 19.4963 19.5H14.9042C14.6637 19.5 14.4573 19.6712 14.4128 19.9076C14.3067 20.472 14.1034 20.983 13.8245 21.4003C13.4014 22.0335 12.7639 22.5 11.9963 22.5C11.2287 22.5 10.5912 22.0335 10.1681 21.4003C9.88922 20.983 9.68596 20.472 9.57981 19.9076C9.53536 19.6712 9.32893 19.5 9.08842 19.5H4.49631C3.39364 19.5 2.49117 18.6063 2.50007 17.4968C2.52144 14.8291 2.66146 11.7233 3.64159 9.12244C4.57318 6.65035 6.27301 4.62036 9.29789 3.84183C9.47456 3.79636 9.61244 3.65828 9.65766 3.48154C9.7532 3.10811 9.9036 2.73543 10.139 2.41359ZM12.0463 2.5C11.7854 2.5 11.5585 2.54473 11.3628 2.64364C11.1631 2.74461 11.0349 2.88252 10.9461 3.00391C10.7141 3.32121 10.5888 3.76864 10.5329 4.24786C10.5076 4.46535 10.3437 4.64106 10.1285 4.68143C8.63479 4.96163 7.46528 5.55659 6.55493 6.3977C5.64806 7.23559 5.02166 8.29605 4.57735 9.47507C3.66647 11.8922 3.52142 14.8356 3.50003 17.5048C3.49567 18.0491 3.93917 18.5 4.49631 18.5H19.4963C20.0534 18.5 20.4969 18.0493 20.4928 17.5048C20.4721 14.786 20.3292 11.78 19.4175 9.33597C18.9732 8.14467 18.3474 7.08163 17.4402 6.25569C16.5288 5.42591 15.3592 4.85905 13.8684 4.62389C13.647 4.58897 13.4759 4.411 13.4497 4.18842C13.3939 3.71381 13.2709 3.27934 13.0516 2.97442C12.9704 2.86145 12.8521 2.72952 12.6659 2.63338C12.4834 2.5391 12.2762 2.5 12.0463 2.5ZM11.1477 19.5C10.9877 19.5 10.8373 19.5766 10.7432 19.706C10.6491 19.8354 10.6227 20.0021 10.6721 20.1543C10.7562 20.4136 10.8677 20.6474 10.9995 20.8447C11.3067 21.3043 11.6711 21.5 11.9963 21.5C12.3215 21.5 12.686 21.3043 12.9931 20.8447C13.1249 20.6474 13.2364 20.4136 13.3206 20.1543C13.3699 20.0021 13.3435 19.8354 13.2494 19.706C13.1553 19.5766 13.005 19.5 12.845 19.5H11.1477Z" fill="black"/>
</svg>
