<svg width="135" height="134" viewBox="0 0 135 134" fill="none" xmlns="http://www.w3.org/2000/svg">
<path d="M15 26C15 11.6406 26.6406 0 41 0H109C123.359 0 135 11.6406 135 26V94C135 108.359 123.359 120 109 120H41C26.6406 120 15 108.359 15 94V26Z" fill="#63A7CD"/>
<path d="M20.6361 94.8753L87.5781 36.4567L67.8843 13.8896L81.2294 2.24372L134.819 63.6524L121.474 75.2983L101.591 52.5141L34.649 110.933L20.6361 94.8753Z" fill="white"/>
<circle cx="74.5" cy="70" r="25" fill="#78CA1E"/>
<path d="M59.7273 50.2752C59.5455 50.2752 57.6818 51.6514 57 52.5688C68.5909 80.0917 92.4547 53.2569 92.0002 52.5689C91.6365 52.0184 90.182 50.8104 89.5002 50.2753C66.0911 76.1927 59.9545 50.2752 59.7273 50.2752Z" fill="white"/>
<path d="M61.7727 91.3303L58.5909 89.0367C72.4091 77.844 85.5606 84.3731 90.4091 89.0367C89.5 90.1376 87.4545 91.3303 86.5455 91.789C77.8182 82.4312 66.3939 87.5841 61.7727 91.3303Z" fill="white"/>
<path d="M59.7273 50.2752C59.5455 50.2752 57.6818 51.6514 57 52.5688C68.5909 80.0917 92.4547 53.2569 92.0002 52.5689C91.6365 52.0184 90.182 50.8104 89.5002 50.2753C66.0911 76.1927 59.9545 50.2752 59.7273 50.2752Z" stroke="white"/>
<path d="M61.7727 91.3303L58.5909 89.0367C72.4091 77.844 85.5606 84.3731 90.4091 89.0367C89.5 90.1376 87.4545 91.3303 86.5455 91.789C77.8182 82.4312 66.3939 87.5841 61.7727 91.3303Z" stroke="white"/>
</svg>
